<?xml version="1.0" standalone="no"?>
<!DOCTYPE svg PUBLIC "-//W3C//DTD SVG 20010904//EN"
 "http://www.w3.org/TR/2001/REC-SVG-20010904/DTD/svg10.dtd">
<svg version="1.0" xmlns="http://www.w3.org/2000/svg"
 width="1280.000000pt" height="1280.000000pt" viewBox="0 0 1280.000000 1280.000000"
 preserveAspectRatio="xMidYMid meet">
<metadata>
Created by potrace 1.11, written by Peter Selinger 2001-2013
</metadata>
<g transform="translate(0.000000,1280.000000) scale(0.100000,-0.100000)"
fill="#000000" stroke="none">
<path d="M7346 12703 c-1 -2 -142 -3 -313 -3 l-310 -1 -37 -172 c-20 -95 -38
-181 -40 -192 -3 -11 -14 -63 -25 -115 -11 -52 -22 -106 -25 -120 -2 -14 -11
-55 -20 -91 -14 -62 -18 -81 -31 -149 -2 -14 -16 -74 -29 -135 -14 -60 -34
-159 -45 -220 -27 -147 -26 -146 -62 -281 -41 -155 -41 -154 0 -178 32 -18 51
-20 198 -19 156 1 170 0 326 -37 89 -22 227 -53 306 -70 255 -56 474 -127 576
-188 37 -22 38 -23 10 -17 -90 20 -345 74 -375 79 -19 3 -46 8 -60 10 -66 12
-207 37 -225 40 -11 2 -33 6 -50 9 -16 4 -50 9 -75 12 -25 3 -70 10 -100 15
-30 5 -75 11 -100 14 -25 4 -58 8 -75 11 -56 9 -142 13 -153 6 -14 -9 -55
-180 -86 -361 -49 -289 -54 -308 -110 -414 -50 -95 -101 -186 -129 -230 -251
-401 -414 -626 -453 -626 -42 0 -127 -113 -201 -270 -104 -218 -232 -604 -279
-845 -2 -11 -6 -31 -9 -45 -3 -14 -8 -45 -11 -70 -3 -25 -7 -51 -10 -59 -2 -7
-7 -57 -10 -110 -6 -88 -4 -103 21 -176 50 -145 155 -345 249 -475 42 -58 76
-93 83 -86 3 2 0 28 -6 58 -42 211 -59 684 -32 908 26 211 73 359 147 456 21
27 41 50 46 52 4 2 51 76 105 165 103 174 140 227 155 227 32 0 -58 -212 -168
-395 -125 -208 -182 -378 -214 -640 -12 -93 -15 -395 -6 -475 3 -25 10 -83 16
-130 45 -384 186 -819 319 -987 38 -49 53 -59 100 -68 28 -5 43 -17 145 -110
137 -126 246 -198 441 -295 304 -150 529 -236 641 -247 52 -5 70 -2 116 19
195 90 536 437 654 665 37 72 39 82 41 174 1 54 9 133 18 174 10 46 15 92 11
118 -16 111 -19 173 -20 449 -1 219 -4 300 -13 309 -37 37 -120 -61 -363 -431
-57 -86 -150 -263 -150 -285 0 -11 46 -38 157 -91 104 -50 152 -78 144 -84
-14 -8 -26 -7 -212 5 l-105 7 -47 -46 c-52 -52 -127 -91 -208 -106 -106 -21
-300 -9 -404 25 -155 51 -265 135 -265 203 0 65 -65 135 -179 193 -35 18 -70
43 -79 57 -15 23 -15 26 7 43 13 11 29 19 36 19 42 0 131 197 165 363 21 104
17 199 -11 253 -21 42 -35 54 -114 96 -130 71 -143 87 -109 136 19 27 38 28
91 2 52 -25 173 -57 241 -65 61 -7 75 8 48 50 -11 16 -14 34 -10 51 7 29 93
162 178 277 31 42 71 102 90 134 38 64 122 157 135 149 5 -3 -22 -64 -59 -136
-141 -273 -240 -531 -345 -900 -36 -124 -71 -243 -79 -264 -18 -53 -10 -122
26 -226 53 -150 153 -305 221 -341 20 -11 123 -22 207 -23 81 0 277 17 285 25
2 3 31 80 65 173 95 263 145 383 242 576 99 197 105 207 283 480 209 318 250
391 361 645 139 315 254 535 254 486 0 -18 -31 -95 -69 -170 l-40 -79 25 -17
c14 -9 41 -19 60 -22 30 -5 39 -1 69 32 66 70 149 257 181 408 18 86 -19 230
-126 492 -5 11 -32 81 -61 155 -56 146 -158 381 -192 445 -30 56 -53 85 -86
109 -15 12 -61 50 -100 85 l-73 65 63 13 c92 18 183 51 207 74 52 48 11 146
-97 236 -84 69 -185 118 -284 136 -43 8 -81 18 -85 22 -11 11 28 34 51 30 12
-2 33 -6 47 -9 44 -8 202 -63 287 -99 87 -38 125 -59 160 -90 21 -19 21 -19
32 2 28 51 153 457 167 541 3 14 9 39 15 57 5 17 18 73 28 124 15 79 15 102 5
157 -14 76 -6 108 31 122 15 6 44 39 72 82 42 65 205 382 351 681 l52 107
-1001 -2 c-550 -2 -1002 -4 -1003 -5z"/>
<path d="M8539 8608 c-35 -40 -72 -82 -82 -93 -42 -46 -43 -72 -1 -40 37 28
44 19 27 -37 -26 -90 -89 -205 -218 -398 -135 -202 -205 -324 -205 -355 1 -26
57 38 137 155 32 47 62 89 66 95 65 84 198 326 272 495 20 47 43 99 50 115 15
34 35 104 35 123 0 25 -19 10 -81 -60z"/>
<path d="M3507 6684 c-1 -1 -87 -4 -192 -8 -104 -3 -199 -8 -210 -10 -11 -2
-51 -7 -90 -10 -38 -4 -81 -9 -95 -11 -14 -2 -50 -7 -80 -10 -30 -3 -91 -10
-135 -15 -44 -5 -105 -11 -135 -14 -87 -6 -658 -142 -806 -191 -45 -15 -119
-55 -200 -108 -399 -260 -704 -389 -976 -412 -71 -6 -74 -1 -83 118 -4 48 -10
99 -14 115 -9 32 -53 56 -114 62 -85 9 -274 3 -325 -9 l-52 -13 2 -1229 3
-1228 22 -6 c29 -7 351 -7 428 0 101 10 179 26 202 41 28 18 50 93 58 193 8
106 13 121 42 121 19 0 846 -268 1053 -341 98 -35 296 -75 510 -104 25 -3 72
-10 105 -15 33 -5 85 -12 115 -15 30 -3 62 -8 70 -10 15 -4 67 -11 150 -20
148 -16 251 -28 298 -35 56 -7 207 -6 307 4 33 3 87 9 120 12 33 3 76 7 95 9
19 2 71 7 115 10 44 3 87 8 95 10 8 3 49 7 90 10 41 3 91 7 110 9 19 3 60 7
90 11 30 3 71 7 90 10 19 2 55 7 80 9 25 3 83 10 130 15 47 6 112 13 144 17
33 3 67 7 76 9 9 2 39 6 66 9 27 4 63 8 79 10 17 3 53 7 80 11 41 5 156 22
340 51 17 3 37 7 45 9 8 2 37 6 64 10 27 3 52 8 55 10 3 1 22 6 41 9 83 13
274 68 300 86 23 16 32 37 54 126 35 140 38 136 -125 135 -638 -3 -1335 -12
-1384 -18 -76 -10 -312 3 -430 23 -89 15 -145 38 -129 54 25 24 322 31 1619
35 1130 3 1186 5 1286 40 53 19 73 36 113 100 46 73 56 100 56 154 0 40 -5 53
-30 79 -61 65 -57 64 -570 67 -438 2 -1143 12 -1455 20 -424 11 -586 16 -735
22 -91 3 -175 6 -188 6 -12 1 -19 4 -15 8 8 7 181 15 538 25 116 3 257 7 315
9 97 4 871 5 1470 1 331 -1 509 11 641 46 141 36 173 73 167 192 -5 105 -31
132 -158 169 -81 24 -237 55 -305 62 -33 3 -78 8 -100 10 -161 19 -631 39
-1180 50 -317 6 -590 12 -1030 21 -176 4 -346 8 -377 8 -58 1 -94 15 -42 17
16 0 38 2 49 5 81 16 1433 25 1650 11 61 -5 139 -9 175 -11 177 -10 310 -18
355 -21 215 -18 710 -26 775 -13 146 28 211 84 189 162 -11 38 -75 111 -142
160 -85 62 -288 132 -497 170 -82 15 -190 29 -315 41 -33 3 -73 8 -90 10 -16
3 -133 16 -260 30 -126 14 -243 27 -260 29 -16 3 -57 8 -90 12 -33 3 -69 8
-80 10 -39 7 -231 21 -410 29 -136 6 -230 11 -395 22 -149 10 -810 10 -920 0
-174 -15 -245 -19 -238 -12 3 3 121 35 261 70 435 108 592 171 699 280 41 42
79 114 74 142 -2 10 -7 45 -11 78 -10 89 -28 123 -72 142 -32 14 -82 17 -326
18 -158 0 -289 0 -290 -1z"/>
<path d="M7479 5105 c-100 -27 -160 -72 -175 -131 -22 -87 89 -284 286 -509
80 -92 186 -181 415 -351 44 -32 85 -62 90 -67 124 -101 537 -387 715 -495
129 -78 222 -140 300 -201 250 -196 433 -384 416 -427 -14 -35 -148 0 -411
109 -278 114 -347 140 -460 168 -123 31 -412 116 -660 194 -77 24 -277 87
-445 140 -414 131 -457 134 -615 41 -86 -50 -188 -147 -210 -201 -24 -58 -21
-117 12 -176 47 -87 161 -153 494 -284 195 -77 409 -172 652 -289 279 -135
316 -150 482 -197 195 -56 329 -105 347 -126 16 -20 -12 -41 -141 -108 -81
-42 -101 -58 -127 -98 -51 -78 -96 -246 -75 -284 16 -31 96 -68 251 -116 147
-46 179 -53 305 -62 39 -3 97 -7 130 -10 33 -3 94 -7 135 -10 81 -5 192 -13
280 -20 98 -8 204 -16 265 -20 110 -8 188 -17 272 -30 46 -7 27 14 250 -285
195 -261 302 -368 489 -487 38 -24 -43 4 -88 31 -61 36 -183 129 -274 210
-115 102 -396 384 -432 434 l-31 44 -88 3 c-48 2 -121 7 -163 10 -41 3 -104 8
-140 10 -36 2 -90 7 -120 10 -30 2 -100 7 -155 10 -55 3 -118 7 -140 10 -22 2
-89 7 -150 11 -60 3 -117 8 -127 9 -30 6 -323 19 -355 16 -62 -6 118 -384 261
-548 30 -35 74 -45 177 -38 98 6 305 28 379 41 14 2 50 6 80 10 30 3 64 8 75
10 11 2 103 15 205 29 102 15 196 28 210 30 110 20 234 25 301 13 33 -6 59
-12 57 -13 -2 -2 -32 -6 -68 -9 -36 -4 -81 -9 -100 -11 -19 -3 -62 -7 -95 -10
-58 -5 -113 -11 -185 -20 -19 -3 -64 -7 -100 -10 -36 -3 -99 -10 -140 -15 -41
-5 -97 -12 -125 -15 -27 -3 -66 -7 -85 -10 -19 -2 -55 -7 -80 -10 -221 -29
-369 -60 -376 -79 -2 -6 8 -38 24 -71 16 -33 52 -119 81 -192 58 -146 96 -213
136 -239 30 -19 27 -20 290 51 615 165 1087 277 1222 291 62 6 71 -9 20 -31
-39 -16 -347 -94 -632 -160 -393 -91 -600 -146 -707 -190 -26 -10 -22 -42 8
-61 40 -27 250 -58 604 -89 36 -3 85 -8 110 -10 25 -2 81 -7 125 -10 44 -3
100 -7 125 -10 135 -13 277 -22 655 -41 183 -9 536 -10 650 0 123 9 155 20
212 67 48 41 342 192 398 205 17 4 35 10 40 14 6 4 35 13 65 20 30 7 64 16 75
21 21 9 42 12 62 10 15 -1 30 -51 38 -121 26 -230 19 -220 166 -253 68 -16
132 -31 142 -33 16 -5 17 54 15 1188 -1 666 -5 1204 -10 1218 -20 57 -112 107
-206 114 -72 5 -41 -8 -412 169 -640 304 -995 451 -1309 542 -164 47 -298 68
-386 61 l-70 -5 -50 46 c-54 51 -184 148 -310 234 -44 30 -82 56 -85 59 -8 9
-160 108 -550 358 -201 128 -401 260 -445 292 -70 50 -249 163 -355 223 -19
10 -80 45 -135 77 -113 65 -113 65 -325 182 -248 137 -435 235 -471 246 -53
17 -151 20 -200 7z"/>
</g>
</svg>
